<svg xmlns="http://www.w3.org/2000/svg" viewBox="0 0 32 40" shape-rendering="crispEdges">
  <g>
    <!-- helmet -->
    <rect x="10" y="2" width="12" height="8" fill="#1d2333"/>
    <rect x="9" y="4" width="1" height="4" fill="#1d2333"/>
    <rect x="22" y="4" width="1" height="4" fill="#1d2333"/>
    <rect x="12" y="4" width="8" height="4" fill="#5b6478"/>
    <!-- neck -->
    <rect x="13" y="10" width="6" height="2" fill="#e0a978"/>
    <!-- torso / overalls -->
    <rect x="8" y="12" width="16" height="14" fill="#232a3d"/>
    <rect x="8" y="12" width="16" height="3" fill="#f28b1e"/>
    <!-- arms crossed -->
    <rect x="6" y="16" width="4" height="8" fill="#f28b1e"/>
    <rect x="22" y="16" width="4" height="8" fill="#f28b1e"/>
    <rect x="10" y="20" width="12" height="4" fill="#e0a978"/>
    <!-- gloves -->
    <rect x="6" y="22" width="4" height="4" fill="#d9730d"/>
    <rect x="22" y="22" width="4" height="4" fill="#d9730d"/>
    <!-- legs -->
    <rect x="9" y="26" width="6" height="10" fill="#232a3d"/>
    <rect x="17" y="26" width="6" height="10" fill="#232a3d"/>
    <!-- boots -->
    <rect x="8" y="36" width="8" height="3" fill="#1d2333"/>
    <rect x="16" y="36" width="8" height="3" fill="#1d2333"/>
  </g>
</svg>
